<svg width="495" height="195" viewBox="0 0 495 195" fill="none" xmlns="http://www.w3.org/2000/svg" role="img" aria-label="Nolan GitHub stats">
  <style>
    .header { font: 600 18px 'Segoe UI', Ubuntu, Sans-Serif; fill: #70a5fd; }
    text { font-family: 'Segoe UI', Ubuntu, Sans-Serif; }
    .rank-text { font: 800 24px 'Segoe UI', Ubuntu, Sans-Serif; fill: #a9b1d6; }
  </style>
  <rect x="0.5" y="0.5" rx="6" height="99%" width="494" fill="#1a1b27" stroke="#1a1b27" stroke-opacity="1"/>
  <text x="25" y="35" class="header">Nolan's GitHub Stats</text>

  <g transform="translate(0, 0)">
    <g transform="translate(400, 105)">
      <circle cx="0" cy="0" r="40" fill="none" stroke="#a9b1d6" stroke-opacity="0.2" stroke-width="6"/>
      <circle cx="0" cy="0" r="40" fill="none" stroke="#70a5fd" stroke-width="6" stroke-linecap="round"
        transform="rotate(-90)"
        stroke-dasharray="251.33"
        stroke-dashoffset="147.94"/>
      <text x="0" y="0" text-anchor="middle" dominant-baseline="central" class="rank-text">B</text>
    </g>
  </g>

  <g transform="translate(25, 55)">
    
    <g transform="translate(0, 0)">
      <svg x="0" y="0" viewBox="0 0 16 16" width="16" height="16" fill="#bf91f3">
        <path fill-rule="evenodd" d="M8 .25a.75.75 0 0 1 .673.418l1.882 3.815 4.21.612a.75.75 0 0 1 .416 1.279l-3.046 2.97.719 4.192a.751.751 0 0 1-1.088.791L8 12.347l-3.766 1.98a.75.75 0 0 1-1.088-.79l.72-4.194L.818 6.374a.75.75 0 0 1 .416-1.28l4.21-.611L7.327.668A.75.75 0 0 1 8 .25Z"/>
      </svg>
      <text x="25" y="12.5" fill="#a9b1d6" font-size="14" font-weight="400">Total Stars Earned:</text>
      <text x="220" y="12.5" fill="#a9b1d6" font-size="14" font-weight="700">0</text>
    </g>
    <g transform="translate(0, 25)">
      <svg x="0" y="0" viewBox="0 0 16 16" width="16" height="16" fill="#bf91f3">
        <path fill-rule="evenodd" d="M11.93 8.5a4.002 4.002 0 0 1-7.86 0H.75a.75.75 0 0 1 0-1.5h3.32a4.002 4.002 0 0 1 7.86 0h3.32a.75.75 0 0 1 0 1.5Zm-1.43-.75a2.5 2.5 0 1 0-5 0 2.5 2.5 0 0 0 5 0Z"/>
      </svg>
      <text x="25" y="12.5" fill="#a9b1d6" font-size="14" font-weight="400">Total Commits (2021-Present):</text>
      <text x="220" y="12.5" fill="#a9b1d6" font-size="14" font-weight="700">1,900</text>
    </g>
    <g transform="translate(0, 50)">
      <svg x="0" y="0" viewBox="0 0 16 16" width="16" height="16" fill="#bf91f3">
        <path fill-rule="evenodd" d="M1.5 3.25a2.25 2.25 0 1 1 3 2.122v5.256a2.251 2.251 0 1 1-1.5 0V5.372A2.25 2.25 0 0 1 1.5 3.25Zm5.677-.177L9.573.677A.25.25 0 0 1 10 .854V2.5h1A2.5 2.5 0 0 1 13.5 5v5.628a2.251 2.251 0 1 1-1.5 0V5a1 1 0 0 0-1-1h-1v1.646a.25.25 0 0 1-.427.177L7.177 3.427a.25.25 0 0 1 0-.354ZM3.75 2.5a.75.75 0 1 0 0 1.5.75.75 0 0 0 0-1.5Zm0 9.5a.75.75 0 1 0 0 1.5.75.75 0 0 0 0-1.5Zm8.25.75a.75.75 0 1 0 1.5 0 .75.75 0 0 0-1.5 0Z"/>
      </svg>
      <text x="25" y="12.5" fill="#a9b1d6" font-size="14" font-weight="400">Total PRs:</text>
      <text x="220" y="12.5" fill="#a9b1d6" font-size="14" font-weight="700">544</text>
    </g>
    <g transform="translate(0, 75)">
      <svg x="0" y="0" viewBox="0 0 16 16" width="16" height="16" fill="#bf91f3">
        <path fill-rule="evenodd" d="M8 9.5a1.5 1.5 0 1 0 0-3 1.5 1.5 0 0 0 0 3Z M8 0a8 8 0 1 1 0 16A8 8 0 0 1 8 0ZM1.5 8a6.5 6.5 0 1 0 13 0 6.5 6.5 0 0 0-13 0Z"/>
      </svg>
      <text x="25" y="12.5" fill="#a9b1d6" font-size="14" font-weight="400">Total Issues:</text>
      <text x="220" y="12.5" fill="#a9b1d6" font-size="14" font-weight="700">0</text>
    </g>
    <g transform="translate(0, 100)">
      <svg x="0" y="0" viewBox="0 0 16 16" width="16" height="16" fill="#bf91f3">
        <path fill-rule="evenodd" d="M5 5.372v.878c0 .414.336.75.75.75h4.5a.75.75 0 0 0 .75-.75v-.878a2.25 2.25 0 1 1 1.5 0v.878a2.25 2.25 0 0 1-2.25 2.25h-1.5v2.128a2.251 2.251 0 1 1-1.5 0V8.5h-1.5A2.25 2.25 0 0 1 3.5 6.25v-.878a2.25 2.25 0 1 1 1.5 0ZM5 3.25a.75.75 0 1 0-1.5 0 .75.75 0 0 0 1.5 0Zm6.75.75a.75.75 0 1 0 0-1.5.75.75 0 0 0 0 1.5Zm-3 8.75a.75.75 0 1 0-1.5 0 .75.75 0 0 0 1.5 0Z"/>
      </svg>
      <text x="25" y="12.5" fill="#a9b1d6" font-size="14" font-weight="400">Contributed to (last year):</text>
      <text x="220" y="12.5" fill="#a9b1d6" font-size="14" font-weight="700">1</text>
    </g>
  </g>
</svg>